<svg xmlns="http://www.w3.org/2000/svg" width="58.335" height="20.556"><path d="M14.662 11.105c1.285-4.797-1.778-8.753-6.083-8.753-4.309-.001-7.088 3.577-7.088 8.278 0 4.567 3.869 8.402 8.3 8.402.043 0 .315.032.722.014 3.272-.145 6.873-2.191 9.362-4.058 6.149-4.613 15.416-13.318 22.952-14.767 7.479-1.438 17.89 4.254 15.02 13.899-2.981 10.014-18.133 6.133-16.062-3.25.109-.495.354-1.236.702-1.633.637-.763 1.782.191 1.146.955l-.11.186c-.696 1.346-.36 3.279.062 4.609 1.296 4.086 10.742 5.734 12.833-1.292 2.373-7.977-6.252-13.367-13.311-12.009-7.123 1.37-16.49 10.109-22.339 14.495-2.58 1.935-7.423 4.704-11.02 4.343-5.244-.025-9.748-4.526-9.748-9.894 0-5.248 3.195-9.77 8.58-9.77 5.389 0 9.034 4.99 7.523 10.63-.257.96-1.697.575-1.44-.385z"/></svg>